# xmcd
#
# Track frame offsets:
#	150
#	17308
#	33829
#	46126
#	61437
#	77596
#	93910
#	108239
#	124242
#	139565
#	151987
#	168509
#	182108
#	204010
#	220335
#	238331
#	254464
#	269377
#	284998
#	301166
#	316961
#
# Disc length: 4407 seconds
#
# Revision: 0
# Processed by: cddbd v1.5.2PL0 Copyright (c) Steve Scherf et al.
# Submitted via: EZCDAudioConverter 3.1.0.1
#
DISCID=20113515
DTITLE=Hott Country Volume 246 CAN
DYEAR=2016
DGENRE=country
TTITLE0=Luke Bryan - Move
TTITLE1=Jason Aldean - A Little More Summertime
TTITLE2=Jess Moskaluke - Elevator
TTITLE3=Toby Keith - A Few More Cowboys
TTITLE4=Tim McGraw - How I'll Always Be
TTITLE5=Miranda Lambert - Vice
TTITLE6=Aaron Pritchett - Out Of The Blue
TTITLE7=Darius Rucker - If I Told You
TTITLE8=Madeline Merlo - War Paint
TTITLE9=Kane Brown - Thunder In The Rain
TTITLE10=Chase Rice - Everybody We Know Does
TTITLE11=Dee Jay Silver ft. Austin Webb - Just Got Paid
TTITLE12=Chris Stapleton - Tennessee Whiskey
TTITLE13=Lauren Alaina - Road Less Traveled
TTITLE14=Jana Kramer - Circles
TTITLE15=Randy Houser - Chasing Down A Good Time
TTITLE16=Dylan Scott - My Girl
TTITLE17=Trace Adkins - Lit
TTITLE18=Trent Harmon - There's A Girl
TTITLE19=Buck Twenty - Here's To The Nights
TTITLE20=Eric Paslay - Angels In This Town
EXTD=
EXTT0=
EXTT1=
EXTT2=
EXTT3=
EXTT4=
EXTT5=
EXTT6=
EXTT7=
EXTT8=
EXTT9=
EXTT10=
EXTT11=
EXTT12=
EXTT13=
EXTT14=
EXTT15=
EXTT16=
EXTT17=
EXTT18=
EXTT19=
EXTT20=
PLAYORDER=
